<svg width="122" height="24" viewBox="0 0 122 24" fill="none" xmlns="http://www.w3.org/2000/svg">
<path d="M10.5805 15.074H4.46448L3.45248 18H0.218484L5.74048 2.622H9.32648L14.8485 18H11.5925L10.5805 15.074ZM9.74448 12.61L7.52248 6.186L5.30048 12.61H9.74448ZM19.9925 7.594C20.3885 7.00733 20.9312 6.53067 21.6205 6.164C22.3245 5.79733 23.1239 5.614 24.0185 5.614C25.0599 5.614 25.9985 5.87067 26.8345 6.384C27.6852 6.89733 28.3525 7.63067 28.8365 8.584C29.3352 9.52267 29.5845 10.6153 29.5845 11.862C29.5845 13.1087 29.3352 14.216 28.8365 15.184C28.3525 16.1373 27.6852 16.878 26.8345 17.406C25.9985 17.934 25.0599 18.198 24.0185 18.198C23.1092 18.198 22.3099 18.022 21.6205 17.67C20.9459 17.3033 20.4032 16.834 19.9925 16.262V18H16.9125V1.72H19.9925V7.594ZM26.4385 11.862C26.4385 11.1287 26.2845 10.498 25.9765 9.97C25.6832 9.42733 25.2872 9.01667 24.7885 8.738C24.3045 8.45933 23.7765 8.32 23.2045 8.32C22.6472 8.32 22.1192 8.46667 21.6205 8.76C21.1365 9.03867 20.7405 9.44933 20.4325 9.992C20.1392 10.5347 19.9925 11.1727 19.9925 11.906C19.9925 12.6393 20.1392 13.2773 20.4325 13.82C20.7405 14.3627 21.1365 14.7807 21.6205 15.074C22.1192 15.3527 22.6472 15.492 23.2045 15.492C23.7765 15.492 24.3045 15.3453 24.7885 15.052C25.2872 14.7587 25.6832 14.3407 25.9765 13.798C26.2845 13.2553 26.4385 12.61 26.4385 11.862ZM36.4867 18.198C35.4894 18.198 34.5947 18.022 33.8027 17.67C33.0107 17.3033 32.38 16.812 31.9107 16.196C31.456 15.58 31.2067 14.898 31.1627 14.15H34.2647C34.3234 14.6193 34.5507 15.008 34.9467 15.316C35.3574 15.624 35.8634 15.778 36.4647 15.778C37.0514 15.778 37.506 15.6607 37.8287 15.426C38.166 15.1913 38.3347 14.8907 38.3347 14.524C38.3347 14.128 38.1294 13.8347 37.7187 13.644C37.3227 13.4387 36.6847 13.2187 35.8047 12.984C34.8954 12.764 34.1474 12.5367 33.5607 12.302C32.9887 12.0673 32.49 11.708 32.0647 11.224C31.654 10.74 31.4487 10.0873 31.4487 9.266C31.4487 8.59133 31.6394 7.97533 32.0207 7.418C32.4167 6.86067 32.974 6.42067 33.6927 6.098C34.426 5.77533 35.284 5.614 36.2667 5.614C37.7187 5.614 38.8774 5.98067 39.7427 6.714C40.608 7.43267 41.0847 8.408 41.1727 9.64H38.2247C38.1807 9.156 37.9754 8.77467 37.6087 8.496C37.2567 8.20267 36.78 8.056 36.1787 8.056C35.6214 8.056 35.1887 8.15867 34.8807 8.364C34.5874 8.56933 34.4407 8.85533 34.4407 9.222C34.4407 9.63267 34.646 9.948 35.0567 10.168C35.4674 10.3733 36.1054 10.586 36.9707 10.806C37.8507 11.026 38.5767 11.2533 39.1487 11.488C39.7207 11.7227 40.212 12.0893 40.6227 12.588C41.048 13.072 41.268 13.7173 41.2827 14.524C41.2827 15.228 41.0847 15.8587 40.6887 16.416C40.3074 16.9733 39.75 17.4133 39.0167 17.736C38.298 18.044 37.4547 18.198 36.4867 18.198ZM49.223 18.198C48.0496 18.198 46.9936 17.9413 46.055 17.428C45.1163 16.9 44.3756 16.1593 43.833 15.206C43.305 14.2527 43.041 13.1527 43.041 11.906C43.041 10.6593 43.3123 9.55933 43.855 8.606C44.4123 7.65267 45.1676 6.91933 46.121 6.406C47.0743 5.878 48.1376 5.614 49.311 5.614C50.4843 5.614 51.5476 5.878 52.501 6.406C53.4543 6.91933 54.2023 7.65267 54.745 8.606C55.3023 9.55933 55.581 10.6593 55.581 11.906C55.581 13.1527 55.295 14.2527 54.723 15.206C54.1656 16.1593 53.403 16.9 52.435 17.428C51.4816 17.9413 50.411 18.198 49.223 18.198ZM49.223 15.514C49.7803 15.514 50.301 15.382 50.785 15.118C51.2836 14.8393 51.6796 14.4287 51.973 13.886C52.2663 13.3433 52.413 12.6833 52.413 11.906C52.413 10.7473 52.105 9.86 51.489 9.244C50.8876 8.61333 50.147 8.298 49.267 8.298C48.387 8.298 47.6463 8.61333 47.045 9.244C46.4583 9.86 46.165 10.7473 46.165 11.906C46.165 13.0647 46.451 13.9593 47.023 14.59C47.6096 15.206 48.343 15.514 49.223 15.514ZM60.9203 7.704C61.3163 7.05867 61.8296 6.55267 62.4603 6.186C63.1056 5.81933 63.8389 5.636 64.6603 5.636V8.87H63.8463C62.8783 8.87 62.1449 9.09733 61.6463 9.552C61.1623 10.0067 60.9203 10.7987 60.9203 11.928V18H57.8403V5.812H60.9203V7.704ZM69.8148 7.572C70.2108 7.01467 70.7535 6.55267 71.4428 6.186C72.1468 5.80467 72.9461 5.614 73.8408 5.614C74.8821 5.614 75.8208 5.87067 76.6568 6.384C77.5075 6.89733 78.1748 7.63067 78.6588 8.584C79.1575 9.52267 79.4068 10.6153 79.4068 11.862C79.4068 13.1087 79.1575 14.216 78.6588 15.184C78.1748 16.1373 77.5075 16.878 76.6568 17.406C75.8208 17.934 74.8821 18.198 73.8408 18.198C72.9461 18.198 72.1541 18.0147 71.4648 17.648C70.7901 17.2813 70.2401 16.8193 69.8148 16.262V23.808H66.7348V5.812H69.8148V7.572ZM76.2608 11.862C76.2608 11.1287 76.1068 10.498 75.7988 9.97C75.5055 9.42733 75.1095 9.01667 74.6108 8.738C74.1268 8.45933 73.5988 8.32 73.0268 8.32C72.4695 8.32 71.9415 8.46667 71.4428 8.76C70.9588 9.03867 70.5628 9.44933 70.2548 9.992C69.9615 10.5347 69.8148 11.1727 69.8148 11.906C69.8148 12.6393 69.9615 13.2773 70.2548 13.82C70.5628 14.3627 70.9588 14.7807 71.4428 15.074C71.9415 15.3527 72.4695 15.492 73.0268 15.492C73.5988 15.492 74.1268 15.3453 74.6108 15.052C75.1095 14.7587 75.5055 14.3407 75.7988 13.798C76.1068 13.2553 76.2608 12.61 76.2608 11.862ZM85.231 8.342V14.238C85.231 14.6487 85.3263 14.9493 85.517 15.14C85.7223 15.316 86.0596 15.404 86.529 15.404H87.959V18H86.023C83.427 18 82.129 16.7387 82.129 14.216V8.342H80.677V5.812H82.129V2.798H85.231V5.812H87.959V8.342H85.231ZM91.7363 4.36C91.1936 4.36 90.7389 4.19133 90.3723 3.854C90.0203 3.502 89.8443 3.06933 89.8443 2.556C89.8443 2.04267 90.0203 1.61733 90.3723 1.28C90.7389 0.927999 91.1936 0.751999 91.7363 0.751999C92.2789 0.751999 92.7263 0.927999 93.0783 1.28C93.4449 1.61733 93.6283 2.04267 93.6283 2.556C93.6283 3.06933 93.4449 3.502 93.0783 3.854C92.7263 4.19133 92.2789 4.36 91.7363 4.36ZM93.2543 5.812V18H90.1743V5.812H93.2543ZM101.709 18.198C100.536 18.198 99.48 17.9413 98.5413 17.428C97.6026 16.9 96.862 16.1593 96.3193 15.206C95.7913 14.2527 95.5273 13.1527 95.5273 11.906C95.5273 10.6593 95.7986 9.55933 96.3413 8.606C96.8986 7.65267 97.654 6.91933 98.6073 6.406C99.5606 5.878 100.624 5.614 101.797 5.614C102.971 5.614 104.034 5.878 104.987 6.406C105.941 6.91933 106.689 7.65267 107.231 8.606C107.789 9.55933 108.067 10.6593 108.067 11.906C108.067 13.1527 107.781 14.2527 107.209 15.206C106.652 16.1593 105.889 16.9 104.921 17.428C103.968 17.9413 102.897 18.198 101.709 18.198ZM101.709 15.514C102.267 15.514 102.787 15.382 103.271 15.118C103.77 14.8393 104.166 14.4287 104.459 13.886C104.753 13.3433 104.899 12.6833 104.899 11.906C104.899 10.7473 104.591 9.86 103.975 9.244C103.374 8.61333 102.633 8.298 101.753 8.298C100.873 8.298 100.133 8.61333 99.5313 9.244C98.9446 9.86 98.6513 10.7473 98.6513 11.906C98.6513 13.0647 98.9373 13.9593 99.5093 14.59C100.096 15.206 100.829 15.514 101.709 15.514ZM117.081 5.636C118.533 5.636 119.706 6.098 120.601 7.022C121.495 7.93133 121.943 9.20733 121.943 10.85V18H118.863V11.268C118.863 10.3 118.621 9.55933 118.137 9.046C117.653 8.518 116.993 8.254 116.157 8.254C115.306 8.254 114.631 8.518 114.133 9.046C113.649 9.55933 113.407 10.3 113.407 11.268V18H110.327V5.812H113.407V7.33C113.817 6.802 114.338 6.39133 114.969 6.098C115.614 5.79 116.318 5.636 117.081 5.636Z" fill="white"/>
</svg>
