<svg width="201" height="15" viewBox="0 0 201 15" fill="none" xmlns="http://www.w3.org/2000/svg">
<path opacity="0.6" d="M0.602 6.114C0.602 5.162 0.816667 4.308 1.246 3.552C1.67533 2.78667 2.25867 2.18933 2.996 1.76C3.74267 1.33067 4.56867 1.116 5.474 1.116C6.538 1.116 7.46667 1.37267 8.26 1.886C9.05333 2.39933 9.632 3.12733 9.996 4.07H8.47C8.19933 3.482 7.80733 3.02933 7.294 2.712C6.79 2.39467 6.18333 2.236 5.474 2.236C4.79267 2.236 4.18133 2.39467 3.64 2.712C3.09867 3.02933 2.674 3.482 2.366 4.07C2.058 4.64867 1.904 5.33 1.904 6.114C1.904 6.88867 2.058 7.57 2.366 8.158C2.674 8.73667 3.09867 9.18467 3.64 9.502C4.18133 9.81933 4.79267 9.978 5.474 9.978C6.18333 9.978 6.79 9.824 7.294 9.516C7.80733 9.19867 8.19933 8.746 8.47 8.158H9.996C9.632 9.09133 9.05333 9.81467 8.26 10.328C7.46667 10.832 6.538 11.084 5.474 11.084C4.56867 11.084 3.74267 10.874 2.996 10.454C2.25867 10.0247 1.67533 9.432 1.246 8.676C0.816667 7.92 0.602 7.066 0.602 6.114ZM15.2385 11.126C14.5198 11.126 13.8665 10.9627 13.2785 10.636C12.6998 10.3093 12.2425 9.84733 11.9065 9.25C11.5798 8.64333 11.4165 7.94333 11.4165 7.15C11.4165 6.366 11.5845 5.67533 11.9205 5.078C12.2658 4.47133 12.7325 4.00933 13.3205 3.692C13.9085 3.36533 14.5665 3.202 15.2945 3.202C16.0225 3.202 16.6805 3.36533 17.2685 3.692C17.8565 4.00933 18.3185 4.46667 18.6545 5.064C18.9998 5.66133 19.1725 6.35667 19.1725 7.15C19.1725 7.94333 18.9951 8.64333 18.6405 9.25C18.2951 9.84733 17.8238 10.3093 17.2265 10.636C16.6291 10.9627 15.9665 11.126 15.2385 11.126ZM15.2385 10.006C15.6958 10.006 16.1251 9.89867 16.5265 9.684C16.9278 9.46933 17.2498 9.14733 17.4925 8.718C17.7445 8.28867 17.8705 7.766 17.8705 7.15C17.8705 6.534 17.7491 6.01133 17.5065 5.582C17.2638 5.15267 16.9465 4.83533 16.5545 4.63C16.1625 4.41533 15.7378 4.308 15.2805 4.308C14.8138 4.308 14.3845 4.41533 13.9925 4.63C13.6098 4.83533 13.3018 5.15267 13.0685 5.582C12.8351 6.01133 12.7185 6.534 12.7185 7.15C12.7185 7.77533 12.8305 8.30267 13.0545 8.732C13.2878 9.16133 13.5958 9.48333 13.9785 9.698C14.3611 9.90333 14.7811 10.006 15.2385 10.006ZM22.1215 4.742C22.3735 4.30333 22.7469 3.93933 23.2415 3.65C23.7455 3.35133 24.3289 3.202 24.9915 3.202C25.6729 3.202 26.2889 3.36533 26.8395 3.692C27.3995 4.01867 27.8382 4.48067 28.1555 5.078C28.4729 5.666 28.6315 6.352 28.6315 7.136C28.6315 7.91067 28.4729 8.60133 28.1555 9.208C27.8382 9.81467 27.3995 10.286 26.8395 10.622C26.2889 10.958 25.6729 11.126 24.9915 11.126C24.3382 11.126 23.7595 10.9813 23.2555 10.692C22.7609 10.3933 22.3829 10.0247 22.1215 9.586V14.64H20.8475V3.328H22.1215V4.742ZM27.3295 7.136C27.3295 6.55733 27.2129 6.05333 26.9795 5.624C26.7462 5.19467 26.4289 4.868 26.0275 4.644C25.6355 4.42 25.2015 4.308 24.7255 4.308C24.2589 4.308 23.8249 4.42467 23.4235 4.658C23.0315 4.882 22.7142 5.21333 22.4715 5.652C22.2382 6.08133 22.1215 6.58067 22.1215 7.15C22.1215 7.72867 22.2382 8.23733 22.4715 8.676C22.7142 9.10533 23.0315 9.43667 23.4235 9.67C23.8249 9.894 24.2589 10.006 24.7255 10.006C25.2015 10.006 25.6355 9.894 26.0275 9.67C26.4289 9.43667 26.7462 9.10533 26.9795 8.676C27.2129 8.23733 27.3295 7.724 27.3295 7.136ZM36.9165 3.328L32.2965 14.612H30.9805L32.4925 10.916L29.3985 3.328H30.8125L33.2205 9.544L35.6005 3.328H36.9165ZM39.4711 4.574C39.6951 4.13533 40.0125 3.79467 40.4231 3.552C40.8431 3.30933 41.3518 3.188 41.9491 3.188V4.504H41.6131C40.1851 4.504 39.4711 5.27867 39.4711 6.828V11H38.1971V3.328H39.4711V4.574ZM44.0778 2.082C43.8351 2.082 43.6298 1.998 43.4618 1.83C43.2938 1.662 43.2098 1.45667 43.2098 1.214C43.2098 0.971333 43.2938 0.766 43.4618 0.598C43.6298 0.43 43.8351 0.345999 44.0778 0.345999C44.3111 0.345999 44.5071 0.43 44.6658 0.598C44.8338 0.766 44.9178 0.971333 44.9178 1.214C44.9178 1.45667 44.8338 1.662 44.6658 1.83C44.5071 1.998 44.3111 2.082 44.0778 2.082ZM44.6938 3.328V11H43.4198V3.328H44.6938ZM50.0291 3.202C50.6918 3.202 51.2704 3.34667 51.7651 3.636C52.2691 3.92533 52.6424 4.28933 52.8851 4.728V3.328H54.1731V11.168C54.1731 11.868 54.0238 12.4887 53.7251 13.03C53.4264 13.5807 52.9971 14.01 52.4371 14.318C51.8864 14.626 51.2424 14.78 50.5051 14.78C49.4971 14.78 48.6571 14.542 47.9851 14.066C47.3131 13.59 46.9164 12.9413 46.7951 12.12H48.0551C48.1951 12.5867 48.4844 12.96 48.9231 13.24C49.3618 13.5293 49.8891 13.674 50.5051 13.674C51.2051 13.674 51.7744 13.4547 52.2131 13.016C52.6611 12.5773 52.8851 11.9613 52.8851 11.168V9.558C52.6331 10.006 52.2598 10.3793 51.7651 10.678C51.2704 10.9767 50.6918 11.126 50.0291 11.126C49.3478 11.126 48.7271 10.958 48.1671 10.622C47.6164 10.286 47.1824 9.81467 46.8651 9.208C46.5478 8.60133 46.3891 7.91067 46.3891 7.136C46.3891 6.352 46.5478 5.666 46.8651 5.078C47.1824 4.48067 47.6164 4.01867 48.1671 3.692C48.7271 3.36533 49.3478 3.202 50.0291 3.202ZM52.8851 7.15C52.8851 6.57133 52.7684 6.06733 52.5351 5.638C52.3018 5.20867 51.9844 4.882 51.5831 4.658C51.1911 4.42467 50.7571 4.308 50.2811 4.308C49.8051 4.308 49.3711 4.42 48.9791 4.644C48.5871 4.868 48.2744 5.19467 48.0411 5.624C47.8078 6.05333 47.6911 6.55733 47.6911 7.136C47.6911 7.724 47.8078 8.23733 48.0411 8.676C48.2744 9.10533 48.5871 9.43667 48.9791 9.67C49.3711 9.894 49.8051 10.006 50.2811 10.006C50.7571 10.006 51.1911 9.894 51.5831 9.67C51.9844 9.43667 52.3018 9.10533 52.5351 8.676C52.7684 8.23733 52.8851 7.72867 52.8851 7.15ZM60.134 3.188C60.7127 3.188 61.2354 3.314 61.702 3.566C62.1687 3.80867 62.5327 4.17733 62.794 4.672C63.0647 5.16667 63.2 5.76867 63.2 6.478V11H61.94V6.66C61.94 5.89467 61.7487 5.31133 61.366 4.91C60.9834 4.49933 60.4607 4.294 59.798 4.294C59.126 4.294 58.5894 4.504 58.188 4.924C57.796 5.344 57.6 5.95533 57.6 6.758V11H56.326V0.64H57.6V4.42C57.852 4.028 58.1974 3.72467 58.636 3.51C59.084 3.29533 59.5834 3.188 60.134 3.188ZM66.8351 4.378V8.9C66.8351 9.27333 66.9145 9.53933 67.0731 9.698C67.2318 9.84733 67.5071 9.922 67.8991 9.922H68.8371V11H67.6891C66.9798 11 66.4478 10.8367 66.0931 10.51C65.7385 10.1833 65.5611 9.64667 65.5611 8.9V4.378H64.5671V3.328H65.5611V1.396H66.8351V3.328H68.8371V4.378H66.8351ZM78.5932 1.144C79.5358 1.144 80.3758 1.35867 81.1132 1.788C81.8505 2.208 82.4198 2.796 82.8212 3.552C83.2318 4.29867 83.4372 5.15267 83.4372 6.114C83.4372 7.07533 83.2318 7.934 82.8212 8.69C82.4198 9.43667 81.8505 10.0247 81.1132 10.454C80.3758 10.874 79.5358 11.084 78.5932 11.084C77.6412 11.084 76.7965 10.874 76.0592 10.454C75.3218 10.0247 74.7478 9.43667 74.3372 8.69C73.9265 7.934 73.7212 7.07533 73.7212 6.114C73.7212 5.15267 73.9265 4.29867 74.3372 3.552C74.7478 2.796 75.3218 2.208 76.0592 1.788C76.7965 1.35867 77.6412 1.144 78.5932 1.144ZM78.5932 1.704C77.7252 1.704 76.9692 1.89067 76.3252 2.264C75.6812 2.628 75.1865 3.14133 74.8412 3.804C74.4958 4.46667 74.3232 5.23667 74.3232 6.114C74.3232 6.982 74.4958 7.752 74.8412 8.424C75.1865 9.08667 75.6812 9.60467 76.3252 9.978C76.9692 10.3513 77.7252 10.538 78.5932 10.538C79.4518 10.538 80.1985 10.3513 80.8332 9.978C81.4772 9.60467 81.9718 9.08667 82.3172 8.424C82.6625 7.752 82.8352 6.982 82.8352 6.114C82.8352 5.23667 82.6625 4.46667 82.3172 3.804C81.9718 3.14133 81.4772 2.628 80.8332 2.264C80.1985 1.89067 79.4518 1.704 78.5932 1.704ZM78.5652 2.866C78.0052 2.866 77.4918 2.99667 77.0252 3.258C76.5678 3.51933 76.2038 3.89733 75.9332 4.392C75.6625 4.87733 75.5272 5.44667 75.5272 6.1C75.5272 6.75333 75.6625 7.32733 75.9332 7.822C76.2038 8.30733 76.5678 8.68533 77.0252 8.956C77.4918 9.21733 78.0052 9.348 78.5652 9.348C79.2652 9.348 79.8718 9.16133 80.3852 8.788C80.8985 8.40533 81.2485 7.89667 81.4352 7.262H80.2592C79.9792 8.03667 79.4145 8.424 78.5652 8.424C78.0052 8.424 77.5478 8.22333 77.1932 7.822C76.8385 7.42067 76.6612 6.85133 76.6612 6.114C76.6612 5.36733 76.8385 4.79333 77.1932 4.392C77.5478 3.99067 78.0052 3.79 78.5652 3.79C78.9758 3.79 79.3305 3.89267 79.6292 4.098C79.9278 4.294 80.1378 4.57867 80.2592 4.952H81.4352C81.2578 4.28933 80.9125 3.776 80.3992 3.412C79.8858 3.048 79.2745 2.866 78.5652 2.866ZM88.5695 9.978C89.7548 9.026 90.6835 8.24667 91.3555 7.64C92.0275 7.024 92.5921 6.38467 93.0495 5.722C93.5161 5.05 93.7495 4.392 93.7495 3.748C93.7495 3.14133 93.6001 2.66533 93.3015 2.32C93.0121 1.96533 92.5408 1.788 91.8875 1.788C91.2528 1.788 90.7581 1.98867 90.4035 2.39C90.0581 2.782 89.8715 3.30933 89.8435 3.972H88.6115C88.6488 2.92667 88.9661 2.11933 89.5635 1.55C90.1608 0.980666 90.9308 0.695999 91.8735 0.695999C92.8348 0.695999 93.5955 0.961999 94.1555 1.494C94.7248 2.026 95.0095 2.75867 95.0095 3.692C95.0095 4.46667 94.7761 5.22267 94.3095 5.96C93.8521 6.688 93.3295 7.332 92.7415 7.892C92.1535 8.44267 91.4021 9.08667 90.4875 9.824H95.3035V10.888H88.5695V9.978ZM96.7762 5.834C96.7762 4.22867 97.0375 2.978 97.5602 2.082C98.0829 1.17667 98.9975 0.724 100.304 0.724C101.602 0.724 102.512 1.17667 103.034 2.082C103.557 2.978 103.818 4.22867 103.818 5.834C103.818 7.46733 103.557 8.73667 103.034 9.642C102.512 10.5473 101.602 11 100.304 11C98.9975 11 98.0829 10.5473 97.5602 9.642C97.0375 8.73667 96.7762 7.46733 96.7762 5.834ZM102.558 5.834C102.558 5.022 102.502 4.336 102.39 3.776C102.288 3.20667 102.068 2.74933 101.732 2.404C101.406 2.05867 100.93 1.886 100.304 1.886C99.6695 1.886 99.1842 2.05867 98.8482 2.404C98.5215 2.74933 98.3022 3.20667 98.1902 3.776C98.0875 4.336 98.0362 5.022 98.0362 5.834C98.0362 6.674 98.0875 7.37867 98.1902 7.948C98.3022 8.51733 98.5215 8.97467 98.8482 9.32C99.1842 9.66533 99.6695 9.838 100.304 9.838C100.93 9.838 101.406 9.66533 101.732 9.32C102.068 8.97467 102.288 8.51733 102.39 7.948C102.502 7.37867 102.558 6.674 102.558 5.834ZM105.413 9.978C106.599 9.026 107.527 8.24667 108.199 7.64C108.871 7.024 109.436 6.38467 109.893 5.722C110.36 5.05 110.593 4.392 110.593 3.748C110.593 3.14133 110.444 2.66533 110.145 2.32C109.856 1.96533 109.385 1.788 108.731 1.788C108.097 1.788 107.602 1.98867 107.247 2.39C106.902 2.782 106.715 3.30933 106.687 3.972H105.455C105.493 2.92667 105.81 2.11933 106.407 1.55C107.005 0.980666 107.775 0.695999 108.717 0.695999C109.679 0.695999 110.439 0.961999 110.999 1.494C111.569 2.026 111.853 2.75867 111.853 3.692C111.853 4.46667 111.62 5.22267 111.153 5.96C110.696 6.688 110.173 7.332 109.585 7.892C108.997 8.44267 108.246 9.08667 107.331 9.824H112.147V10.888H105.413V9.978ZM113.466 9.978C114.651 9.026 115.58 8.24667 116.252 7.64C116.924 7.024 117.489 6.38467 117.946 5.722C118.413 5.05 118.646 4.392 118.646 3.748C118.646 3.14133 118.497 2.66533 118.198 2.32C117.909 1.96533 117.437 1.788 116.784 1.788C116.149 1.788 115.655 1.98867 115.3 2.39C114.955 2.782 114.768 3.30933 114.74 3.972H113.508C113.545 2.92667 113.863 2.11933 114.46 1.55C115.057 0.980666 115.827 0.695999 116.77 0.695999C117.731 0.695999 118.492 0.961999 119.052 1.494C119.621 2.026 119.906 2.75867 119.906 3.692C119.906 4.46667 119.673 5.22267 119.206 5.96C118.749 6.688 118.226 7.332 117.638 7.892C117.05 8.44267 116.299 9.08667 115.384 9.824H120.2V10.888H113.466V9.978ZM130.935 5.33V6.408H125.349V5.33H130.935ZM136.694 9.978C137.88 9.026 138.808 8.24667 139.48 7.64C140.152 7.024 140.717 6.38467 141.174 5.722C141.641 5.05 141.874 4.392 141.874 3.748C141.874 3.14133 141.725 2.66533 141.426 2.32C141.137 1.96533 140.666 1.788 140.012 1.788C139.378 1.788 138.883 1.98867 138.528 2.39C138.183 2.782 137.996 3.30933 137.968 3.972H136.736C136.774 2.92667 137.091 2.11933 137.688 1.55C138.286 0.980666 139.056 0.695999 139.998 0.695999C140.96 0.695999 141.72 0.961999 142.28 1.494C142.85 2.026 143.134 2.75867 143.134 3.692C143.134 4.46667 142.901 5.22267 142.434 5.96C141.977 6.688 141.454 7.332 140.866 7.892C140.278 8.44267 139.527 9.08667 138.612 9.824H143.428V10.888H136.694V9.978ZM144.873 3.426C144.939 2.56733 145.27 1.89533 145.867 1.41C146.465 0.924666 147.239 0.681999 148.191 0.681999C148.826 0.681999 149.372 0.798666 149.829 1.032C150.296 1.256 150.646 1.564 150.879 1.956C151.122 2.348 151.243 2.79133 151.243 3.286C151.243 3.86467 151.075 4.364 150.739 4.784C150.413 5.204 149.983 5.47467 149.451 5.596V5.666C150.058 5.81533 150.539 6.10933 150.893 6.548C151.248 6.98667 151.425 7.56067 151.425 8.27C151.425 8.802 151.304 9.28267 151.061 9.712C150.819 10.132 150.455 10.4633 149.969 10.706C149.484 10.9487 148.901 11.07 148.219 11.07C147.23 11.07 146.418 10.8133 145.783 10.3C145.149 9.77733 144.794 9.04 144.719 8.088H145.951C146.017 8.648 146.245 9.10533 146.637 9.46C147.029 9.81467 147.552 9.992 148.205 9.992C148.859 9.992 149.353 9.824 149.689 9.488C150.035 9.14267 150.207 8.69933 150.207 8.158C150.207 7.458 149.974 6.954 149.507 6.646C149.041 6.338 148.336 6.184 147.393 6.184H147.071V5.12H147.407C148.266 5.11067 148.915 4.97067 149.353 4.7C149.792 4.42 150.011 3.99067 150.011 3.412C150.011 2.91733 149.848 2.52067 149.521 2.222C149.204 1.92333 148.747 1.774 148.149 1.774C147.571 1.774 147.104 1.92333 146.749 2.222C146.395 2.52067 146.185 2.922 146.119 3.426H144.873ZM161.974 5.974C162.328 6.03 162.65 6.17467 162.94 6.408C163.238 6.64133 163.472 6.93067 163.64 7.276C163.817 7.62133 163.906 7.99 163.906 8.382C163.906 8.87667 163.78 9.32467 163.528 9.726C163.276 10.118 162.907 10.4307 162.422 10.664C161.946 10.888 161.381 11 160.728 11H157.088V1.242H160.588C161.25 1.242 161.815 1.354 162.282 1.578C162.748 1.79267 163.098 2.08667 163.332 2.46C163.565 2.83333 163.682 3.25333 163.682 3.72C163.682 4.29867 163.523 4.77933 163.206 5.162C162.898 5.53533 162.487 5.806 161.974 5.974ZM158.362 5.456H160.504C161.101 5.456 161.563 5.316 161.89 5.036C162.216 4.756 162.38 4.36867 162.38 3.874C162.38 3.37933 162.216 2.992 161.89 2.712C161.563 2.432 161.092 2.292 160.476 2.292H158.362V5.456ZM160.616 9.95C161.25 9.95 161.745 9.80067 162.1 9.502C162.454 9.20333 162.632 8.788 162.632 8.256C162.632 7.71467 162.445 7.29 162.072 6.982C161.698 6.66467 161.199 6.506 160.574 6.506H158.362V9.95H160.616ZM172.674 6.87C172.674 7.11267 172.66 7.36933 172.632 7.64H166.5C166.546 8.396 166.803 8.98867 167.27 9.418C167.746 9.838 168.32 10.048 168.992 10.048C169.542 10.048 170 9.922 170.364 9.67C170.737 9.40867 170.998 9.06333 171.148 8.634H172.52C172.314 9.37133 171.904 9.97333 171.288 10.44C170.672 10.8973 169.906 11.126 168.992 11.126C168.264 11.126 167.61 10.9627 167.032 10.636C166.462 10.3093 166.014 9.84733 165.688 9.25C165.361 8.64333 165.198 7.94333 165.198 7.15C165.198 6.35667 165.356 5.66133 165.674 5.064C165.991 4.46667 166.434 4.00933 167.004 3.692C167.582 3.36533 168.245 3.202 168.992 3.202C169.72 3.202 170.364 3.36067 170.924 3.678C171.484 3.99533 171.913 4.434 172.212 4.994C172.52 5.54467 172.674 6.17 172.674 6.87ZM171.358 6.604C171.358 6.11867 171.25 5.70333 171.036 5.358C170.821 5.00333 170.527 4.73733 170.154 4.56C169.79 4.37333 169.384 4.28 168.936 4.28C168.292 4.28 167.741 4.48533 167.284 4.896C166.836 5.30667 166.579 5.876 166.514 6.604H171.358ZM175.013 2.082C174.771 2.082 174.565 1.998 174.397 1.83C174.229 1.662 174.145 1.45667 174.145 1.214C174.145 0.971333 174.229 0.766 174.397 0.598C174.565 0.43 174.771 0.345999 175.013 0.345999C175.247 0.345999 175.443 0.43 175.601 0.598C175.769 0.766 175.853 0.971333 175.853 1.214C175.853 1.45667 175.769 1.662 175.601 1.83C175.443 1.998 175.247 2.082 175.013 2.082ZM175.629 3.328V11H174.355V3.328H175.629ZM181.539 3.188C182.472 3.188 183.228 3.47267 183.807 4.042C184.385 4.602 184.675 5.414 184.675 6.478V11H183.415V6.66C183.415 5.89467 183.223 5.31133 182.841 4.91C182.458 4.49933 181.935 4.294 181.273 4.294C180.601 4.294 180.064 4.504 179.663 4.924C179.271 5.344 179.075 5.95533 179.075 6.758V11H177.801V3.328H179.075V4.42C179.327 4.028 179.667 3.72467 180.097 3.51C180.535 3.29533 181.016 3.188 181.539 3.188ZM193.756 6.87C193.756 7.11267 193.742 7.36933 193.714 7.64H187.582C187.628 8.396 187.885 8.98867 188.352 9.418C188.828 9.838 189.402 10.048 190.074 10.048C190.624 10.048 191.082 9.922 191.446 9.67C191.819 9.40867 192.08 9.06333 192.23 8.634H193.602C193.396 9.37133 192.986 9.97333 192.37 10.44C191.754 10.8973 190.988 11.126 190.074 11.126C189.346 11.126 188.692 10.9627 188.114 10.636C187.544 10.3093 187.096 9.84733 186.77 9.25C186.443 8.64333 186.28 7.94333 186.28 7.15C186.28 6.35667 186.438 5.66133 186.756 5.064C187.073 4.46667 187.516 4.00933 188.086 3.692C188.664 3.36533 189.327 3.202 190.074 3.202C190.802 3.202 191.446 3.36067 192.006 3.678C192.566 3.99533 192.995 4.434 193.294 4.994C193.602 5.54467 193.756 6.17 193.756 6.87ZM192.44 6.604C192.44 6.11867 192.332 5.70333 192.118 5.358C191.903 5.00333 191.609 4.73733 191.236 4.56C190.872 4.37333 190.466 4.28 190.018 4.28C189.374 4.28 188.823 4.48533 188.366 4.896C187.918 5.30667 187.661 5.876 187.596 6.604H192.44ZM199.441 11L197.621 8.144L195.871 11H194.541L197.019 7.192L194.541 3.328H195.983L197.803 6.17L199.539 3.328H200.869L198.405 7.122L200.883 11H199.441Z" fill="white"/>
</svg>
