<svg width="140" height="29" viewBox="0 0 140 29" fill="none" xmlns="http://www.w3.org/2000/svg">
<rect width="140" height="29" fill="#10385B"/>
<path d="M46.576 18.084C46.024 18.084 45.528 17.988 45.088 17.796C44.656 17.596 44.316 17.324 44.068 16.98C43.82 16.628 43.692 16.224 43.684 15.768H44.848C44.888 16.16 45.048 16.492 45.328 16.764C45.616 17.028 46.032 17.16 46.576 17.16C47.096 17.16 47.504 17.032 47.8 16.776C48.104 16.512 48.256 16.176 48.256 15.768C48.256 15.448 48.168 15.188 47.992 14.988C47.816 14.788 47.596 14.636 47.332 14.532C47.068 14.428 46.712 14.316 46.264 14.196C45.712 14.052 45.268 13.908 44.932 13.764C44.604 13.62 44.32 13.396 44.08 13.092C43.848 12.78 43.732 12.364 43.732 11.844C43.732 11.388 43.848 10.984 44.08 10.632C44.312 10.28 44.636 10.008 45.052 9.816C45.476 9.624 45.96 9.528 46.504 9.528C47.288 9.528 47.928 9.724 48.424 10.116C48.928 10.508 49.212 11.028 49.276 11.676H48.076C48.036 11.356 47.868 11.076 47.572 10.836C47.276 10.588 46.884 10.464 46.396 10.464C45.94 10.464 45.568 10.584 45.28 10.824C44.992 11.056 44.848 11.384 44.848 11.808C44.848 12.112 44.932 12.36 45.1 12.552C45.276 12.744 45.488 12.892 45.736 12.996C45.992 13.092 46.348 13.204 46.804 13.332C47.356 13.484 47.8 13.636 48.136 13.788C48.472 13.932 48.76 14.16 49 14.472C49.24 14.776 49.36 15.192 49.36 15.72C49.36 16.128 49.252 16.512 49.036 16.872C48.82 17.232 48.5 17.524 48.076 17.748C47.652 17.972 47.152 18.084 46.576 18.084ZM49.959 14.7C49.959 14.02 50.095 13.428 50.367 12.924C50.639 12.412 51.015 12.016 51.495 11.736C51.983 11.456 52.539 11.316 53.163 11.316C53.971 11.316 54.635 11.512 55.155 11.904C55.683 12.296 56.031 12.84 56.199 13.536H55.023C54.911 13.136 54.691 12.82 54.363 12.588C54.043 12.356 53.643 12.24 53.163 12.24C52.539 12.24 52.035 12.456 51.651 12.888C51.267 13.312 51.075 13.916 51.075 14.7C51.075 15.492 51.267 16.104 51.651 16.536C52.035 16.968 52.539 17.184 53.163 17.184C53.643 17.184 54.043 17.072 54.363 16.848C54.683 16.624 54.903 16.304 55.023 15.888H56.199C56.023 16.56 55.671 17.1 55.143 17.508C54.615 17.908 53.955 18.108 53.163 18.108C52.539 18.108 51.983 17.968 51.495 17.688C51.015 17.408 50.639 17.012 50.367 16.5C50.095 15.988 49.959 15.388 49.959 14.7ZM60.32 11.304C60.816 11.304 61.264 11.412 61.664 11.628C62.064 11.836 62.376 12.152 62.6 12.576C62.832 13 62.948 13.516 62.948 14.124V18H61.868V14.28C61.868 13.624 61.704 13.124 61.376 12.78C61.048 12.428 60.6 12.252 60.032 12.252C59.456 12.252 58.996 12.432 58.652 12.792C58.316 13.152 58.148 13.676 58.148 14.364V18H57.056V9.12H58.148V12.36C58.364 12.024 58.66 11.764 59.036 11.58C59.42 11.396 59.848 11.304 60.32 11.304ZM70.1318 14.46C70.1318 14.668 70.1198 14.888 70.0958 15.12H64.8398C64.8798 15.768 65.0998 16.276 65.4998 16.644C65.9078 17.004 66.3998 17.184 66.9758 17.184C67.4478 17.184 67.8398 17.076 68.1518 16.86C68.4718 16.636 68.6958 16.34 68.8238 15.972H69.9998C69.8238 16.604 69.4718 17.12 68.9438 17.52C68.4158 17.912 67.7598 18.108 66.9758 18.108C66.3518 18.108 65.7918 17.968 65.2958 17.688C64.8078 17.408 64.4238 17.012 64.1438 16.5C63.8638 15.98 63.7238 15.38 63.7238 14.7C63.7238 14.02 63.8598 13.424 64.1318 12.912C64.4038 12.4 64.7838 12.008 65.2718 11.736C65.7678 11.456 66.3358 11.316 66.9758 11.316C67.5998 11.316 68.1518 11.452 68.6318 11.724C69.1118 11.996 69.4798 12.372 69.7358 12.852C69.9998 13.324 70.1318 13.86 70.1318 14.46ZM69.0038 14.232C69.0038 13.816 68.9118 13.46 68.7278 13.164C68.5438 12.86 68.2918 12.632 67.9718 12.48C67.6598 12.32 67.3118 12.24 66.9278 12.24C66.3758 12.24 65.9038 12.416 65.5118 12.768C65.1278 13.12 64.9078 13.608 64.8518 14.232H69.0038ZM70.5652 14.688C70.5652 14.016 70.7012 13.428 70.9732 12.924C71.2452 12.412 71.6172 12.016 72.0892 11.736C72.5692 11.456 73.1052 11.316 73.6972 11.316C74.2092 11.316 74.6852 11.436 75.1252 11.676C75.5652 11.908 75.9012 12.216 76.1332 12.6V9.12H77.2372V18H76.1332V16.764C75.9172 17.156 75.5972 17.48 75.1732 17.736C74.7492 17.984 74.2532 18.108 73.6852 18.108C73.1012 18.108 72.5692 17.964 72.0892 17.676C71.6172 17.388 71.2452 16.984 70.9732 16.464C70.7012 15.944 70.5652 15.352 70.5652 14.688ZM76.1332 14.7C76.1332 14.204 76.0332 13.772 75.8332 13.404C75.6332 13.036 75.3612 12.756 75.0172 12.564C74.6812 12.364 74.3092 12.264 73.9012 12.264C73.4932 12.264 73.1212 12.36 72.7852 12.552C72.4492 12.744 72.1812 13.024 71.9812 13.392C71.7812 13.76 71.6812 14.192 71.6812 14.688C71.6812 15.192 71.7812 15.632 71.9812 16.008C72.1812 16.376 72.4492 16.66 72.7852 16.86C73.1212 17.052 73.4932 17.148 73.9012 17.148C74.3092 17.148 74.6812 17.052 75.0172 16.86C75.3612 16.66 75.6332 16.376 75.8332 16.008C76.0332 15.632 76.1332 15.196 76.1332 14.7ZM84.3146 11.424V18H83.2226V17.028C83.0146 17.364 82.7226 17.628 82.3466 17.82C81.9786 18.004 81.5706 18.096 81.1226 18.096C80.6106 18.096 80.1506 17.992 79.7426 17.784C79.3346 17.568 79.0106 17.248 78.7706 16.824C78.5386 16.4 78.4226 15.884 78.4226 15.276V11.424H79.5026V15.132C79.5026 15.78 79.6666 16.28 79.9946 16.632C80.3226 16.976 80.7706 17.148 81.3386 17.148C81.9226 17.148 82.3826 16.968 82.7186 16.608C83.0546 16.248 83.2226 15.724 83.2226 15.036V11.424H84.3146ZM86.6504 9.12V18H85.5584V9.12H86.6504ZM93.9115 14.46C93.9115 14.668 93.8995 14.888 93.8755 15.12H88.6195C88.6595 15.768 88.8795 16.276 89.2795 16.644C89.6875 17.004 90.1795 17.184 90.7555 17.184C91.2275 17.184 91.6195 17.076 91.9315 16.86C92.2515 16.636 92.4755 16.34 92.6035 15.972H93.7795C93.6035 16.604 93.2515 17.12 92.7235 17.52C92.1955 17.912 91.5395 18.108 90.7555 18.108C90.1315 18.108 89.5715 17.968 89.0755 17.688C88.5875 17.408 88.2035 17.012 87.9235 16.5C87.6435 15.98 87.5035 15.38 87.5035 14.7C87.5035 14.02 87.6395 13.424 87.9115 12.912C88.1835 12.4 88.5635 12.008 89.0515 11.736C89.5475 11.456 90.1155 11.316 90.7555 11.316C91.3795 11.316 91.9315 11.452 92.4115 11.724C92.8915 11.996 93.2595 12.372 93.5155 12.852C93.7795 13.324 93.9115 13.86 93.9115 14.46ZM92.7835 14.232C92.7835 13.816 92.6915 13.46 92.5075 13.164C92.3235 12.86 92.0715 12.632 91.7515 12.48C91.4395 12.32 91.0915 12.24 90.7075 12.24C90.1555 12.24 89.6835 12.416 89.2915 12.768C88.9075 13.12 88.6875 13.608 88.6315 14.232H92.7835ZM96.9441 14.688C96.9441 14.016 97.0801 13.428 97.3521 12.924C97.6241 12.412 97.9961 12.016 98.4681 11.736C98.9481 11.456 99.4801 11.316 100.064 11.316C100.64 11.316 101.14 11.44 101.564 11.688C101.988 11.936 102.304 12.248 102.512 12.624V11.424H103.616V18H102.512V16.776C102.296 17.16 101.972 17.48 101.54 17.736C101.116 17.984 100.62 18.108 100.052 18.108C99.4681 18.108 98.9401 17.964 98.4681 17.676C97.9961 17.388 97.6241 16.984 97.3521 16.464C97.0801 15.944 96.9441 15.352 96.9441 14.688ZM102.512 14.7C102.512 14.204 102.412 13.772 102.212 13.404C102.012 13.036 101.74 12.756 101.396 12.564C101.06 12.364 100.688 12.264 100.28 12.264C99.8721 12.264 99.5001 12.36 99.1641 12.552C98.8281 12.744 98.5601 13.024 98.3601 13.392C98.1601 13.76 98.0601 14.192 98.0601 14.688C98.0601 15.192 98.1601 15.632 98.3601 16.008C98.5601 16.376 98.8281 16.66 99.1641 16.86C99.5001 17.052 99.8721 17.148 100.28 17.148C100.688 17.148 101.06 17.052 101.396 16.86C101.74 16.66 102.012 16.376 102.212 16.008C102.412 15.632 102.512 15.196 102.512 14.7ZM107.053 14.7C107.053 14.02 107.189 13.428 107.461 12.924C107.733 12.412 108.109 12.016 108.589 11.736C109.077 11.456 109.633 11.316 110.257 11.316C111.065 11.316 111.729 11.512 112.249 11.904C112.777 12.296 113.125 12.84 113.293 13.536H112.117C112.005 13.136 111.785 12.82 111.457 12.588C111.137 12.356 110.737 12.24 110.257 12.24C109.633 12.24 109.129 12.456 108.745 12.888C108.361 13.312 108.169 13.916 108.169 14.7C108.169 15.492 108.361 16.104 108.745 16.536C109.129 16.968 109.633 17.184 110.257 17.184C110.737 17.184 111.137 17.072 111.457 16.848C111.777 16.624 111.997 16.304 112.117 15.888H113.293C113.117 16.56 112.765 17.1 112.237 17.508C111.709 17.908 111.049 18.108 110.257 18.108C109.633 18.108 109.077 17.968 108.589 17.688C108.109 17.408 107.733 17.012 107.461 16.5C107.189 15.988 107.053 15.388 107.053 14.7ZM113.742 14.688C113.742 14.016 113.878 13.428 114.15 12.924C114.422 12.412 114.794 12.016 115.266 11.736C115.746 11.456 116.278 11.316 116.862 11.316C117.438 11.316 117.938 11.44 118.362 11.688C118.786 11.936 119.102 12.248 119.31 12.624V11.424H120.414V18H119.31V16.776C119.094 17.16 118.77 17.48 118.338 17.736C117.914 17.984 117.418 18.108 116.85 18.108C116.266 18.108 115.738 17.964 115.266 17.676C114.794 17.388 114.422 16.984 114.15 16.464C113.878 15.944 113.742 15.352 113.742 14.688ZM119.31 14.7C119.31 14.204 119.21 13.772 119.01 13.404C118.81 13.036 118.538 12.756 118.194 12.564C117.858 12.364 117.486 12.264 117.078 12.264C116.67 12.264 116.298 12.36 115.962 12.552C115.626 12.744 115.358 13.024 115.158 13.392C114.958 13.76 114.858 14.192 114.858 14.688C114.858 15.192 114.958 15.632 115.158 16.008C115.358 16.376 115.626 16.66 115.962 16.86C116.298 17.052 116.67 17.148 117.078 17.148C117.486 17.148 117.858 17.052 118.194 16.86C118.538 16.66 118.81 16.376 119.01 16.008C119.21 15.632 119.31 15.196 119.31 14.7ZM122.751 9.12V18H121.659V9.12H122.751ZM125.104 9.12V18H124.012V9.12H125.104Z" fill="white"/>
<path d="M29.9473 7V9.76075" stroke="white" stroke-linecap="round" stroke-linejoin="round"/>
<path d="M23.6943 7V9.76075" stroke="white" stroke-linecap="round" stroke-linejoin="round"/>
<path d="M26.8241 19.4934H31.8616C32.4885 19.4934 33 18.9819 33 18.355V9.5173C33 8.89036 32.4885 8.37891 31.8616 8.37891H21.781C21.1541 8.37891 20.6426 8.89036 20.6426 9.5173V13.3834" stroke="white" stroke-linecap="round" stroke-linejoin="round"/>
<path d="M33 12H20.6426" stroke="white" stroke-linecap="round" stroke-linejoin="round"/>
<path d="M14.571 12.31L16.2599 11.9278L15.9161 8.38773L13.0443 8.64541C12.9609 9.27781 12.714 13.1982 15.7181 16.3124C18.9339 19.6791 23.1995 19.377 23.7485 19.3339L23.9972 16.4673L20.4907 16.0937L20.0291 17.8648" stroke="white" stroke-linecap="round" stroke-linejoin="round"/>
</svg>
