<svg width="443" height="21" viewBox="0 0 443 21" fill="none" xmlns="http://www.w3.org/2000/svg">
<path d="M5.964 9.974C6.31867 10.03 6.64067 10.1747 6.93 10.408C7.22867 10.6413 7.462 10.9307 7.63 11.276C7.80733 11.6213 7.896 11.99 7.896 12.382C7.896 12.8767 7.77 13.3247 7.518 13.726C7.266 14.118 6.89733 14.4307 6.412 14.664C5.936 14.888 5.37133 15 4.718 15H1.078V5.242H4.578C5.24067 5.242 5.80533 5.354 6.272 5.578C6.73867 5.79267 7.08867 6.08667 7.322 6.46C7.55533 6.83333 7.672 7.25333 7.672 7.72C7.672 8.29867 7.51333 8.77933 7.196 9.162C6.888 9.53533 6.47733 9.806 5.964 9.974ZM2.352 9.456H4.494C5.09133 9.456 5.55333 9.316 5.88 9.036C6.20667 8.756 6.37 8.36867 6.37 7.874C6.37 7.37933 6.20667 6.992 5.88 6.712C5.55333 6.432 5.082 6.292 4.466 6.292H2.352V9.456ZM4.606 13.95C5.24067 13.95 5.73533 13.8007 6.09 13.502C6.44467 13.2033 6.622 12.788 6.622 12.256C6.622 11.7147 6.43533 11.29 6.062 10.982C5.68867 10.6647 5.18933 10.506 4.564 10.506H2.352V13.95H4.606ZM13.4579 6.278V9.54H17.0139V10.59H13.4579V13.95H17.4339V15H12.1839V5.228H17.4339V6.278H13.4579ZM23.1557 5.242V15H21.8817V5.242H23.1557ZM35.519 15H34.245L29.121 7.23V15H27.847V5.228H29.121L34.245 12.984V5.228H35.519V15ZM41.4847 6.278V9.54H45.0407V10.59H41.4847V13.95H45.4607V15H40.2107V5.228H45.4607V6.278H41.4847ZM53.8985 10.128L56.8945 15H55.4525L53.1145 11.192L50.8885 15H49.4745L52.4565 10.128L49.4605 5.242H50.8885L53.2405 9.064L55.4805 5.242H56.9085L53.8985 10.128ZM73.1442 12.83H68.8882L68.1042 15H66.7602L70.2882 5.298H71.7582L75.2722 15H73.9282L73.1442 12.83ZM72.7802 11.794L71.0162 6.866L69.2522 11.794H72.7802ZM78.8538 10.114C78.8538 9.162 79.0685 8.308 79.4978 7.552C79.9271 6.78667 80.5105 6.18933 81.2478 5.76C81.9945 5.33067 82.8205 5.116 83.7258 5.116C84.7898 5.116 85.7185 5.37267 86.5118 5.886C87.3051 6.39933 87.8838 7.12733 88.2478 8.07H86.7218C86.4511 7.482 86.0591 7.02933 85.5458 6.712C85.0418 6.39467 84.4351 6.236 83.7258 6.236C83.0445 6.236 82.4331 6.39467 81.8918 6.712C81.3505 7.02933 80.9258 7.482 80.6178 8.07C80.3098 8.64867 80.1558 9.33 80.1558 10.114C80.1558 10.8887 80.3098 11.57 80.6178 12.158C80.9258 12.7367 81.3505 13.1847 81.8918 13.502C82.4331 13.8193 83.0445 13.978 83.7258 13.978C84.4351 13.978 85.0418 13.824 85.5458 13.516C86.0591 13.1987 86.4511 12.746 86.7218 12.158H88.2478C87.8838 13.0913 87.3051 13.8147 86.5118 14.328C85.7185 14.832 84.7898 15.084 83.7258 15.084C82.8205 15.084 81.9945 14.874 81.2478 14.454C80.5105 14.0247 79.9271 13.432 79.4978 12.676C79.0685 11.92 78.8538 11.066 78.8538 10.114ZM98.4323 12.83H94.1763L93.3923 15H92.0483L95.5763 5.298H97.0463L100.56 15H99.2163L98.4323 12.83ZM98.0683 11.794L96.3043 6.866L94.5403 11.794H98.0683ZM107.656 5.242C108.72 5.242 109.639 5.44267 110.414 5.844C111.198 6.236 111.795 6.80067 112.206 7.538C112.626 8.27533 112.836 9.14333 112.836 10.142C112.836 11.1407 112.626 12.0087 112.206 12.746C111.795 13.474 111.198 14.034 110.414 14.426C109.639 14.8087 108.72 15 107.656 15H104.618V5.242H107.656ZM107.656 13.95C108.916 13.95 109.877 13.6187 110.54 12.956C111.203 12.284 111.534 11.346 111.534 10.142C111.534 8.92867 111.198 7.98133 110.526 7.3C109.863 6.61867 108.907 6.278 107.656 6.278H105.892V13.95H107.656ZM118.31 6.278V9.54H121.866V10.59H118.31V13.95H122.286V15H117.036V5.228H122.286V6.278H118.31ZM136.632 5.312V15H135.358V7.776L132.138 15H131.242L128.008 7.762V15H126.734V5.312H128.106L131.69 13.32L135.274 5.312H136.632ZM148.145 5.242L144.967 11.318V15H143.693V11.318L140.501 5.242H141.915L144.323 10.184L146.731 5.242H148.145Z" fill="#10385B"/>
<path d="M171 10L443 10" stroke="#10385B"/>
</svg>
